<svg width="8" height="8" viewBox="0 0 8 8" fill="none" xmlns="http://www.w3.org/2000/svg">
<path fill-rule="evenodd" clip-rule="evenodd" d="M5.13244 0C5.28649 0 5.41151 0.125023 5.41151 0.279068L5.41168 0.594531C5.95497 0.63178 6.40619 0.817874 6.72555 1.13789C7.0742 1.48803 7.25764 1.99147 7.2558 2.59537V5.98996C7.2558 7.22977 6.46844 8 5.20146 8H2.05432C0.787345 8 0 7.21898 0 5.96168V2.59463C0 1.42522 0.702157 0.674579 1.84732 0.594659L1.84755 0.279068C1.84755 0.125023 1.97257 0 2.12661 0C2.28066 0 2.40568 0.125023 2.40568 0.279068L2.40557 0.587532H4.85319L4.85337 0.279068C4.85337 0.125023 4.9784 0 5.13244 0ZM6.69764 3.3131H0.558137V5.96168C0.558137 6.91647 1.08948 7.44186 2.05432 7.44186H5.20146C6.1663 7.44186 6.69766 6.92614 6.69766 5.98996L6.69764 3.3131ZM5.28414 5.65441C5.43819 5.65441 5.56321 5.77943 5.56321 5.93348C5.56321 6.08752 5.43819 6.21255 5.28414 6.21255C5.1301 6.21255 5.00359 6.08752 5.00359 5.93348C5.00359 5.77943 5.12675 5.65441 5.28079 5.65441H5.28414ZM3.63299 5.65441C3.78703 5.65441 3.91206 5.77943 3.91206 5.93348C3.91206 6.08752 3.78703 6.21255 3.63299 6.21255C3.47894 6.21255 3.35243 6.08752 3.35243 5.93348C3.35243 5.77943 3.47559 5.65441 3.62964 5.65441H3.63299ZM1.97837 5.65441C2.13242 5.65441 2.25744 5.77943 2.25744 5.93348C2.25744 6.08752 2.13242 6.21255 1.97837 6.21255C1.82433 6.21255 1.69744 6.08752 1.69744 5.93348C1.69744 5.77943 1.82098 5.65441 1.97502 5.65441H1.97837ZM5.28414 4.2082C5.43819 4.2082 5.56321 4.33323 5.56321 4.48727C5.56321 4.64132 5.43819 4.76634 5.28414 4.76634C5.1301 4.76634 5.00359 4.64132 5.00359 4.48727C5.00359 4.33323 5.12675 4.2082 5.28079 4.2082H5.28414ZM3.63299 4.2082C3.78703 4.2082 3.91206 4.33323 3.91206 4.48727C3.91206 4.64132 3.78703 4.76634 3.63299 4.76634C3.47894 4.76634 3.35243 4.64132 3.35243 4.48727C3.35243 4.33323 3.47559 4.2082 3.62964 4.2082H3.63299ZM1.97837 4.2082C2.13242 4.2082 2.25744 4.33323 2.25744 4.48727C2.25744 4.64132 2.13242 4.76634 1.97837 4.76634C1.82433 4.76634 1.69744 4.64132 1.69744 4.48727C1.69744 4.33323 1.82098 4.2082 1.97502 4.2082H1.97837ZM4.85319 1.14567H2.40557L2.40568 1.50362C2.40568 1.65767 2.28066 1.78269 2.12661 1.78269C1.97257 1.78269 1.84755 1.65767 1.84755 1.50362L1.84735 1.15412C1.01378 1.22414 0.558137 1.72943 0.558137 2.59463V2.75496H6.69764L6.69766 2.59463C6.69913 2.1351 6.5756 1.77789 6.33039 1.53231C6.11514 1.31642 5.80048 1.18749 5.41183 1.15429L5.41151 1.50362C5.41151 1.65767 5.28649 1.78269 5.13244 1.78269C4.9784 1.78269 4.85337 1.65767 4.85337 1.50362L4.85319 1.14567Z" fill="#323232"/>
</svg>
