<svg
      width="7"
      height="6"
      viewBox="0 0 7 6"
      fill="none"
      xmlns="http://www.w3.org/2000/svg"
    >
      <path
        fill-rule="evenodd"
        clip-rule="evenodd"
        d="M5.94007 5.52478C6.07123 5.52478 6.17767 5.63122 6.17767 5.76237C6.17767 5.89353 6.07123 5.99997 5.94007 5.99997H3.64235C3.5112 5.99997 3.40476 5.89353 3.40476 5.76237C3.40476 5.63122 3.5112 5.52478 3.64235 5.52478H5.94007ZM4.47198 0.207071C4.48782 0.219426 5.01782 0.631261 5.01782 0.631261C5.21043 0.745941 5.36091 0.950908 5.41793 1.19357C5.47464 1.4337 5.43345 1.68144 5.30135 1.89084C5.30046 1.89224 5.29959 1.89362 5.29653 1.89772L5.29415 1.90089C5.2727 1.92915 5.17949 2.04702 4.70903 2.63645C4.70466 2.64417 4.69971 2.65141 4.6943 2.65844C4.68637 2.6688 4.67774 2.67833 4.66852 2.687C4.63643 2.7274 4.60254 2.76986 4.5669 2.81449L4.4947 2.90492C4.34571 3.09151 4.16899 3.31276 3.95933 3.57519L3.85174 3.70986C3.44698 4.21647 2.9286 4.86511 2.26454 5.69588C2.11913 5.87708 1.90118 5.98258 1.66707 5.98543L0.514247 6H0.511079C0.40115 6 0.305478 5.9246 0.279818 5.81721L0.0203618 4.71761C-0.0331767 4.48983 0.020045 4.25477 0.166088 4.0723L3.1503 0.339809C3.15157 0.338542 3.15252 0.336958 3.15379 0.33569C3.48104 -0.0555525 4.07281 -0.113209 4.47198 0.207071ZM2.81758 1.5165L0.537056 4.36913C0.482884 4.43693 0.462926 4.52436 0.482884 4.60832L0.698622 5.52227L1.66136 5.51023C1.75292 5.50928 1.8375 5.46842 1.89358 5.39872C2.18233 5.03744 2.54524 4.58336 2.91836 4.11645L3.05037 3.95126L3.18261 3.78578C3.53253 3.34786 3.87823 2.91518 4.16749 2.55301L2.81758 1.5165ZM3.51969 0.638864L3.11442 1.14522L4.46422 2.18143C4.72402 1.85601 4.89494 1.64168 4.91074 1.62125C4.96269 1.53698 4.98297 1.41787 4.95572 1.30318C4.92785 1.18565 4.85467 1.08586 4.74917 1.02219C4.72668 1.00666 4.19288 0.592295 4.17641 0.579306C3.97556 0.418374 3.68252 0.446252 3.51969 0.638864Z"
        fill="#323232"
      />
    </svg>
