<svg width="10" height="7" viewBox="0 0 10 7" fill="none" xmlns="http://www.w3.org/2000/svg">
<path fill-rule="evenodd" clip-rule="evenodd" d="M4.53875 4.34172L4.58583 4.34173L4.69113 4.34209C5.49602 4.34739 7.3354 4.4287 7.3354 5.67542C7.3354 6.91396 5.56014 6.99473 4.70368 7L4.38637 7C3.58143 6.9947 1.74169 6.9135 1.74169 5.66833C1.74169 4.42824 3.58143 4.34736 4.38637 4.34209L4.49168 4.34173C4.50801 4.34172 4.52372 4.34172 4.53875 4.34172ZM4.53875 4.96709C3.54817 4.96709 2.36706 5.08883 2.36706 5.66833C2.36706 6.23473 3.47767 6.36715 4.44821 6.37465L4.53875 6.375C5.52933 6.375 6.71003 6.25368 6.71003 5.67542C6.71003 5.09008 5.52933 4.96709 4.53875 4.96709ZM7.8547 4.17254C8.86488 4.32388 9.07709 4.79832 9.07709 5.16979C9.07709 5.39659 8.98787 5.81058 8.39169 6.0378C8.355 6.05156 8.31747 6.05823 8.28037 6.05823C8.15446 6.05823 8.03564 5.98152 7.98811 5.85686C7.92641 5.69552 8.00771 5.51458 8.16905 5.45329C8.45172 5.34573 8.45172 5.22691 8.45172 5.16979C8.45172 4.98718 8.2195 4.85961 7.76173 4.79123C7.59121 4.76539 7.47323 4.60654 7.49866 4.43519C7.52409 4.26426 7.68252 4.15044 7.8547 4.17254ZM1.57843 4.43519C1.60386 4.60654 1.48587 4.76539 1.31536 4.79123C0.857588 4.85961 0.625368 4.98718 0.625368 5.16979C0.625368 5.22691 0.625368 5.34531 0.908451 5.45329C1.0698 5.51458 1.15109 5.69552 1.08939 5.85686C1.04186 5.98152 0.923043 6.05823 0.797135 6.05823C0.76003 6.05823 0.722508 6.05156 0.68582 6.0378C0.0892191 5.81017 0 5.39617 0 5.16979C0 4.79874 0.212208 4.32388 1.2228 4.17254C1.39499 4.15086 1.55258 4.26426 1.57843 4.43519ZM4.53875 0C5.58937 0 6.44362 0.854669 6.44362 1.90487C6.44362 2.95507 5.58937 3.80974 4.53875 3.80974H4.5275C4.01886 3.80807 3.54233 3.60879 3.18546 3.24858C2.82775 2.88878 2.63221 2.411 2.63428 1.90362C2.63428 0.854669 3.48855 0 4.53875 0ZM4.53875 0.625368C3.83334 0.625368 3.25966 1.19946 3.25966 1.90487C3.25842 2.24674 3.38933 2.56651 3.62905 2.8079C3.86878 3.04929 4.18813 3.18312 4.52833 3.18437L4.53875 3.49706V3.18437C5.24417 3.18437 5.81825 2.6107 5.81825 1.90487C5.81825 1.19946 5.24417 0.625368 4.53875 0.625368ZM7.11902 0.408365C7.85195 0.528853 8.38435 1.15589 8.38435 1.89924C8.38268 2.6476 7.8236 3.28964 7.08358 3.39345C7.06899 3.39554 7.0544 3.39637 7.04022 3.39637C6.8868 3.39637 6.75297 3.28339 6.73088 3.12705C6.70711 2.9557 6.82593 2.79769 6.99728 2.77392C7.43087 2.71305 7.75815 2.337 7.75898 1.89841C7.75898 1.46357 7.44713 1.09585 7.01729 1.02539C6.84719 0.997462 6.73171 0.836534 6.75964 0.666017C6.78799 0.4955 6.94767 0.381266 7.11902 0.408365ZM2.31786 0.666017C2.3458 0.836534 2.23031 0.997462 2.06021 1.02539C1.63038 1.09585 1.31853 1.46357 1.31853 1.89924C1.31936 2.337 1.64663 2.71347 2.07981 2.77392C2.25116 2.79769 2.36998 2.9557 2.34621 3.12705C2.32412 3.28339 2.19029 3.39637 2.03686 3.39637C2.02269 3.39637 2.0081 3.39554 1.99351 3.39345C1.25349 3.28964 0.694825 2.6476 0.693158 1.90008C0.693158 1.15589 1.22555 0.528853 1.95849 0.408365C2.134 0.380849 2.28951 0.496334 2.31786 0.666017Z" fill="#323232"/>
</svg>
